<svg xmlns="http://www.w3.org/2000/svg" width="256" height="256" viewBox="0 0 256 256">
  <defs>
    <radialGradient id="bg" cx="50%" cy="42%" r="68%">
      <stop offset="0" stop-color="#17394a"/>
      <stop offset="1" stop-color="#06131e"/>
    </radialGradient>
    <linearGradient id="flame" x1="0" y1="1" x2="0" y2="0">
      <stop offset="0" stop-color="#e0953b"/>
      <stop offset="0.55" stop-color="#ffca72"/>
      <stop offset="1" stop-color="#fff3bd"/>
    </linearGradient>
  </defs>
  <rect width="256" height="256" rx="52" fill="url(#bg)"/>
  <circle cx="128" cy="128" r="96" fill="none" stroke="#66e0dc" stroke-opacity=".18" stroke-width="3"/>
  <circle cx="128" cy="128" r="75" fill="none" stroke="#d2a85b" stroke-opacity=".3" stroke-width="4"/>
  <path d="M56 190c23-14 43-14 66 0s43 14 78-4M48 210c30-14 52-13 78 2s47 13 82-5" fill="none" stroke="#66e0dc" stroke-opacity=".42" stroke-linecap="round" stroke-width="6"/>
  <path d="M91 99h74l-8 101H99z" fill="#10293a" stroke="#d2a85b" stroke-width="9" stroke-linejoin="round"/>
  <path d="M103 100V77c0-16 10-27 25-27s25 11 25 27v23" fill="none" stroke="#d2a85b" stroke-width="9" stroke-linecap="round"/>
  <path d="M128 86c21 25 27 43 17 59-7 12-27 17-39 4-15-17-3-37 22-63z" fill="url(#flame)"/>
  <path d="M128 111c9 13 11 22 5 30-4 5-12 6-17 1-7-8-1-18 12-31z" fill="#fff8d5"/>
  <path d="M88 112h80M94 176h68" stroke="#d2a85b" stroke-width="8" stroke-linecap="round"/>
  <circle cx="128" cy="177" r="9" fill="#66e0dc"/>
</svg>
