<svg xmlns="http://www.w3.org/2000/svg" width="256" height="128" viewBox="0 0 256 128">
  <defs>
    <linearGradient id="bg" x1="0" y1="0" x2="0" y2="1"><stop stop-color="#123a30"/><stop offset="1" stop-color="#061c18"/></linearGradient>
    <linearGradient id="gold" x1="0" y1="0" x2="1" y2="1"><stop stop-color="#fff0a0"/><stop offset=".32" stop-color="#d9a23e"/><stop offset=".72" stop-color="#83551f"/><stop offset="1" stop-color="#f0c66b"/></linearGradient>
    <filter id="shadow"><feGaussianBlur stdDeviation="2"/></filter>
  </defs>
  <rect x="8" y="9" width="240" height="111" rx="17" fill="#000" opacity=".55" filter="url(#shadow)"/>
  <rect x="6" y="6" width="244" height="114" rx="17" fill="url(#bg)" stroke="url(#gold)" stroke-width="4"/>
  <rect x="12" y="12" width="232" height="102" rx="12" fill="none" stroke="#79a888" stroke-opacity=".5"/>
  <path d="M6 30L26 6h22L32 13 18 30zM250 30L230 6h-22l16 7 14 17zM6 97l20 23h22l-16-7-14-16zM250 97l-20 23h-22l16-7 14-16z" fill="url(#gold)"/>
  <g fill="#ffe58b"><path d="M23 23l5-8 5 8-5 8z"/><path d="M233 23l-5-8-5 8 5 8z"/><path d="M23 105l5 8 5-8-5-8z"/><path d="M233 105l-5 8-5-8 5-8z"/></g>
  <path d="M52 9h152M52 117h152" stroke="#f4ce74" stroke-width="2" stroke-linecap="round" opacity=".75"/>
</svg>
